<svg width="15" height="15" viewBox="0 0 15 15" fill="none" xmlns="http://www.w3.org/2000/svg">
<path fill-rule="evenodd" clip-rule="evenodd" d="M0 7.50001C0 3.35787 3.35788 0 7.50003 0C11.6422 0 15 3.35787 15 7.50001C15 11.6421 11.6422 15 7.50003 15C3.35788 15 0 11.6421 0 7.50001ZM7.50003 1.07582C3.95204 1.07582 1.07583 3.95203 1.07583 7.50001C1.07583 11.048 3.95204 13.9242 7.50003 13.9242C11.048 13.9242 13.9242 11.048 13.9242 7.50001C13.9242 3.95203 11.048 1.07582 7.50003 1.07582ZM10.1654 4.83486C10.3865 5.05598 10.3865 5.41451 10.1654 5.63563L8.30092 7.50013L10.1654 9.36465C10.3865 9.58577 10.3865 9.94429 10.1654 10.1654C9.94432 10.3865 9.58579 10.3865 9.36467 10.1654L7.50015 8.3009L5.63564 10.1654C5.41452 10.3865 5.056 10.3865 4.83487 10.1654C4.61375 9.94429 4.61375 9.58577 4.83487 9.36465L6.69939 7.50013L4.83487 5.63563C4.61375 5.41451 4.61375 5.05598 4.83487 4.83486C5.056 4.61374 5.41452 4.61374 5.63564 4.83486L7.50015 6.69938L9.36467 4.83486C9.58579 4.61374 9.94432 4.61374 10.1654 4.83486Z" fill="#81A7BA"/>
</svg>
